<svg id="Layer_1" data-name="Layer 1" xmlns="http://www.w3.org/2000/svg" viewBox="0 0 512 512"><path d="M503.91,24.28a23.79,23.79,0,0,1-23.79,23.79H31.88A23.79,23.79,0,0,1,8.09,24.28h0v-.49A23.79,23.79,0,0,1,31.88,0H480.12a23.79,23.79,0,0,1,23.79,23.79Zm-15.78-.41A7.84,7.84,0,0,0,480.3,16H31.86A7.83,7.83,0,0,0,24,23.87h0V24a7.83,7.83,0,0,0,7.83,7.83H480.3A7.84,7.84,0,0,0,488.13,24Z"/><path d="M264.61,449.26c24.22,7.36,32.15,38.35,12.15,55-15,12.5-36.28,9.48-47.52-6.85-12.38-17.94-2-41.92,18.11-48.16a1.21,1.21,0,0,0,.85-1.16V360.66a.57.57,0,0,0-.56-.58h0l-172.73,0c-26.22,0-42.77-17.24-42.77-43.15q0-125.7,0-251.4c0-6,2.62-9.52,8.7-9.52q214.77,0,429.53,0c6.06,0,9.62,2.54,9.62,8.7V323a34.25,34.25,0,0,1-1,6.18,39.73,39.73,0,0,1-28.3,29.28q-6.12,1.66-19.88,1.67-83.16,0-166,0a.84.84,0,0,0-.84.86h0v87.45A.84.84,0,0,0,264.61,449.26ZM48.46,72a.54.54,0,0,0-.55.55V308.31q0,14.47,1.57,19.39,3.52,11,14.75,14.74,4.93,1.63,15.91,1.64,177.29-.07,354.55,0,8.93,0,13.35-1.55c11.1-3.94,16-13.34,16.08-24.76q.27-122.7.09-245.2a.53.53,0,0,0-.53-.53H48.46ZM272,480.05A15.94,15.94,0,1,0,256.07,496h0A15.93,15.93,0,0,0,272,480.05Z"/><rect x="80.27" y="103.83" width="111.6" height="16.23" rx="7.97"/><path d="M336,114.21c0-5.81,2.33-10.12,8.66-10.08,48.14.34,87.89,39.86,87.43,87.93-.06,6.26-5.25,7.93-10.88,7.93q-37,0-73.95,0c-6.86,0-11.26-1.95-11.27-9.34Q335.93,152.44,336,114.21Zm79.56,69.17c-4.41-33.11-29.81-58.77-63-62.89a.46.46,0,0,0-.51.42v62.51a.56.56,0,0,0,.56.56H415a.52.52,0,0,0,.53-.52Z"/><rect x="96.13" y="128.03" width="55.77" height="15.93" rx="7.73"/><path d="M320.84,216q34.16.09,68.31,0c5.89,0,11,1.58,11,8.18-.37,65.45-71,109.17-129.62,77.3a88.16,88.16,0,0,1-45.69-88.7c5.53-43,42-76.05,85.57-76.71,8.71-.14,9.82,4.83,9.82,12.24q0,33.53,0,67.06A.55.55,0,0,0,320.84,216Zm-7,16c-4,0-9.62-2.35-9.62-6.74V153.22c0-.59-.29-.84-.86-.76-26.08,3.87-47,19.36-57.44,43.23-13.42,30.75-2.81,67.55,24.32,86.76,45.79,32.43,105.08,4.06,113.47-50a.39.39,0,0,0-.31-.44h-.06Q347.84,232.1,313.8,232.07Z"/><rect x="96.15" y="151.95" width="55.77" height="15.96" rx="7.73"/><rect x="80.26" y="175.84" width="111.63" height="16.27" rx="7.99"/><rect x="112.06" y="184.07" width="16" height="95.76" rx="7.84" transform="translate(-112.1 351.6) rotate(-89.9)"/><rect x="88.22" y="247.89" width="55.57" height="16.18" rx="7.83"/><rect x="88.19" y="272.04" width="55.63" height="15.98" rx="7.74"/><rect x="72.16" y="295.97" width="111.81" height="16" rx="7.87"/></svg>