<svg id="Layer_1" data-name="Layer 1" xmlns="http://www.w3.org/2000/svg" viewBox="0 0 512 512"><circle cx="431.76" cy="345.11" r="9.92"/><path d="M359.56,0h45c12,2.66,8.79,16,9,24.91a.69.69,0,0,0,.53.71,112.09,112.09,0,0,1,19.17,7.94.73.73,0,0,0,.91-.13c6.29-6.13,15.24-19.83,25.28-9.86Q474,38,488.36,52.57c9.88,10-3.43,19.05-9.74,25.3a.77.77,0,0,0-.14.9,124,124,0,0,1,7.9,19.13.7.7,0,0,0,.7.53c9.07.23,22.91-3.09,24.92,9.63v44.5c-2.7,12-16,8.88-25,9a.65.65,0,0,0-.68.51,107.29,107.29,0,0,1-7.91,19.06.67.67,0,0,0,.12.84q4.45,4.63,9,9.2c9.81,9.88,1.66,15.25-5.4,22.67a1.3,1.3,0,0,0-.38.93q0,78.5,0,157,0,10.88-1.42,16.27C475.59,406.13,459.66,417.94,441,418L283.47,418a.47.47,0,0,0-.46.46l0,33.06a.47.47,0,0,0,.47.48h0c10.65-.05,24.54-1.09,33.46,1.5,13.08,3.8,23.94,15.66,25.6,29.24a127.79,127.79,0,0,1,.41,19.44q-.31,8-9,9.81H147.7c-7.16-1.6-8.7-6.07-8.72-13.16,0-6-.35-12.9.79-18.31,3.67-17.36,18.81-28.54,36.5-28.47q11,0,22.26-.12a.43.43,0,0,0,.47-.48V418.51a.52.52,0,0,0-.52-.52h0q-75.64,0-151.33,0-12.27,0-17.54-1.42C12.78,412,1.34,397.33,0,379.93V99.7C1.47,82.49,12.91,68,29.44,63.49Q34.85,62,46.83,62,159,62,271.37,62a.53.53,0,0,0,.6-.59,11,11,0,0,1,3.42-8.62q14.53-14.65,29.16-29.22c6.05-6,11.5-3.86,17,1.52q4.28,4.17,8.46,8.46a.55.55,0,0,0,.73.11,114.35,114.35,0,0,1,19.16-8,.79.79,0,0,0,.55-.73C350.59,16.22,347.36,2.45,359.56,0ZM312.79,44.48a.54.54,0,0,0-.88,0L296.67,59.7a.87.87,0,0,0,0,1.23l0,0q4.17,3.86,8.13,8.14c4.62,5,4.37,8.82.88,14.78A97.23,97.23,0,0,0,295.13,110c-2.75,11.21-14,8.48-22.42,8.55a.71.71,0,0,0-.71.71V141a.49.49,0,0,0,.49.49c7,.07,19.81-2.27,22.29,7A114,114,0,0,0,307,178.26c5,8.26-5.15,16.08-10.42,20.82a.77.77,0,0,0-.06,1.09l0,0,15.35,15.36a.59.59,0,0,0,.83,0l0,0c7.05-7.67,12.33-15.7,22.9-9.45a96.79,96.79,0,0,0,25.5,10.54c12.25,3.12,9.22,13.18,9.34,22.67a.71.71,0,0,0,.71.7H393a.47.47,0,0,0,.48-.48h0c.13-10-3-19.6,9.63-22.92a102.63,102.63,0,0,0,18.88-7c7.23-3.51,13-10,21-2.39q4.14,3.93,8.23,8.31a.5.5,0,0,0,.81,0l15.49-15.49a.59.59,0,0,0,0-.83h0c-4.55-4.34-12.53-10.27-11.81-17q.22-2.11,2.66-6.25a96.84,96.84,0,0,0,10.5-25.68c2.89-11.53,13.63-8.72,22.39-8.8a.72.72,0,0,0,.71-.71V119.23a.63.63,0,0,0-.7-.71c-11-.14-19.21,3-22.82-10.46a98.1,98.1,0,0,0-10.54-25c-6-10.13,3-16.22,9.47-22.14a.74.74,0,0,0,.06-1l0,0L452.06,44.44a.54.54,0,0,0-.77,0l0,0c-5.37,5.95-12.45,15.59-21.7,10A97.32,97.32,0,0,0,402.18,43c-11.44-2.83-8.58-13.73-8.7-22.34a.63.63,0,0,0-.71-.7H371a.47.47,0,0,0-.48.48h0c-.14,10.27,3,19.5-9.93,22.9a96.92,96.92,0,0,0-24.49,10.16C324.65,60.25,319.9,51.94,312.79,44.48Zm121,181.84a.49.49,0,0,0-.57-.08,105.36,105.36,0,0,1-19.22,8,.68.68,0,0,0-.52.72c0,7.22,2.17,19.7-5.3,23.69q-2.49,1.33-8.63,1.33-17.35,0-34.7,0c-4.48,0-7.64-.49-9.48-1.48-7-3.76-4.79-16.83-4.93-23.73a.66.66,0,0,0-.46-.6,111.68,111.68,0,0,1-18.75-7.71,1.43,1.43,0,0,0-1.69.28c-6.06,6.32-15.12,19.49-25,9.66q-14.49-14.4-28.85-29c-10.05-10.18,3.52-19.08,9.9-25.47a.66.66,0,0,0,.12-.85A108.72,108.72,0,0,1,277.8,162a.65.65,0,0,0-.66-.5c-11.8-.16-25.19,3.58-25.16-13.27q0-18.47,0-36.91c0-16.3,13.82-12.78,24.9-12.85a.6.6,0,0,0,.56-.38l6.11-15.53a.42.42,0,0,0-.23-.55.4.4,0,0,0-.15,0Q163.63,82,44.09,82c-17,0-24.1,7.92-24.1,24.63q0,90,0,179.84a.54.54,0,0,0,.53.54h0q36.82,0,73.66,0a16.42,16.42,0,0,1,5.88.82c8.09,3.33,8.28,14.93.17,18.24-1.55.63-4.1.95-7.64.94q-36-.06-72.1,0a.5.5,0,0,0-.5.5v27.15a.58.58,0,0,0,.59.58H390.25a13.82,13.82,0,0,1,6.62,1.29c6.39,3.56,6.35,13.55-.08,17.16-2.73,1.54-6.72,1.55-9.79,1.55q-183.19,0-366.4,0a.51.51,0,0,0-.57.56q-.09,8.88-.07,17.74C20,390.67,27.57,398,44.63,398H438.11c16.75,0,23.66-8.33,23.65-24.58q0-68.78,0-138.82a.2.2,0,0,0-.2-.2.16.16,0,0,0-.13.06c-6.34,6.5-11.29,7.84-18.31,1.06Q438.67,231.22,433.81,226.32ZM263,418.55a.55.55,0,0,0-.55-.55h-42.9a.55.55,0,0,0-.55.55v32.9a.55.55,0,0,0,.55.55h42.9a.55.55,0,0,0,.55-.55ZM159.65,492H322.17a.94.94,0,0,0,.94-.94v-2.13a17.27,17.27,0,0,0-17.5-17H176.21a17.27,17.27,0,0,0-17.5,17v2.13A.94.94,0,0,0,159.65,492Z"/><path d="M443.91,130A61.91,61.91,0,1,1,382,68.08h0A61.91,61.91,0,0,1,443.91,130Zm-20,0A41.93,41.93,0,1,0,382,171.93,41.93,41.93,0,0,0,423.93,130Z"/><path d="M99.76,192.08a1.39,1.39,0,0,0-.71-1.21c-8.67-4.81-18.18-8.52-11.43-20.33q6.84-12,13.76-23.86c8-13.78,14.36-8.24,24.89-2.09a.81.81,0,0,0,.87,0l9.12-5.37a.9.9,0,0,0,.47-.81c.15-12.3-1.59-20.46,14.21-20.42q12.65,0,25.31,0c16.38,0,13.83,8.14,14.33,20.52a.79.79,0,0,0,.43.7l9.38,5.4a.62.62,0,0,0,.62,0c11.32-6.18,16.83-11.92,25.22,2.53q5.63,9.67,11.18,19.4c3.49,6.1,6.49,9.88,3.19,15.61-2.25,3.91-8.6,6.69-12.67,9a.76.76,0,0,0-.37.65v10.77a.68.68,0,0,0,.36.63c9.33,5.41,18.65,8.69,11.4,21.35q-7,12.16-14,24.3c-7.36,12.66-14.68,6.49-24.19,1a.74.74,0,0,0-.76,0l-9.49,5.5a.68.68,0,0,0-.35.6c0,8.5,1.75,20.53-10.75,20.53l-32,0c-12.54,0-11-11.83-11-20.58a.78.78,0,0,0-.42-.72l-9.41-5.39a.57.57,0,0,0-.59,0c-8.06,4.6-16.65,11.92-23.59.17q-8-13.52-15.66-27.17c-6-10.7,4.29-15.12,11.83-19.15a1.63,1.63,0,0,0,.85-1.43Zm44.79-34.55c-11.48,4.06-12.3,15.61-27.66,4.61a1.09,1.09,0,0,0-1.51.24l-.06.1-6,10.38a.87.87,0,0,0,.33,1.19h0c7.19,3.92,12,5.85,10.61,15.49a53.73,53.73,0,0,0,.21,16.79c1.34,8-5,10.94-10.78,14.07a.85.85,0,0,0-.35,1.16v0l6,10.56a.84.84,0,0,0,1.15.31l0,0c5.34-3.57,11.1-7.48,17.44-2.45a63.81,63.81,0,0,0,16.42,9.45c7.45,2.91,6.15,9.76,6.31,16.36a.63.63,0,0,0,.71.7H170a.49.49,0,0,0,.49-.47c.16-7.13-1.23-13.09,6.66-16.72,5.48-2.51,9.35-4,15.05-8.49,7.83-6.13,11.68-2.38,18.72,1.64a.73.73,0,0,0,1-.27l6.22-10.84a.56.56,0,0,0-.2-.77c-6.49-3.85-12.41-6-11-14.8a54.65,54.65,0,0,0,.17-16.3c-1.4-10,3.53-11.4,10.86-15.58a.52.52,0,0,0,.22-.82l-6.25-10.75a.9.9,0,0,0-1.23-.32l-.06,0c-5.36,3.74-11.3,7.37-17.68,2.15a54.7,54.7,0,0,0-14.26-8.42c-8.6-3.44-8.59-8.27-8-17.12A.55.55,0,0,0,170,138H157.48a.61.61,0,0,0-.69.66c-.23,5.7,1.22,11-4.12,15.29C151.61,154.8,148.9,156,144.55,157.53Z"/><circle cx="163.66" cy="197.21" r="9.92"/><circle cx="135.91" cy="296.99" r="9.92"/><circle cx="240.91" cy="374.99" r="9.92"/></svg>