<svg id="Layer_1" data-name="Layer 1" xmlns="http://www.w3.org/2000/svg" viewBox="0 0 512 512"><path d="M252.33,0h7.22C399.2,2.65,508.65,113.32,512,252.07v7.47C509.37,399.14,398,509.71,258.68,512h-6C113.08,509.26,3.34,399.15,0,259.93v-7.77Q2.9,150.72,71.55,78.53C118.14,29.56,183.89,1.3,252.33,0ZM488.67,256C488.67,127.5,384.5,23.33,256,23.33h0C127.5,23.33,23.33,127.5,23.33,256h0C23.33,384.5,127.5,488.67,256,488.67h0c128.5,0,232.67-104.17,232.67-232.67Z"/><ellipse cx="281.47" cy="157.79" rx="32.78" ry="29.74" transform="translate(-0.55 0.98) rotate(-0.2)"/><path d="M255.06,213.9c19.5.43,37.49,12.36,37.34,33.6-.08,11-1.84,19.71-5.18,31.33-5.14,17.86-10.85,35.68-14.78,53.85-2.76,12.81-4,26.27,13.12,27.88a52.14,52.14,0,0,0,25.33-3.8.35.35,0,0,1,.45.2.34.34,0,0,1,0,.2l-3.45,13.66a.89.89,0,0,1-.55.61c-19.86,7.43-33.89,13.52-53.21,12.86-20.6-.69-40-13.72-38.63-36.53a106.76,106.76,0,0,1,3.63-22.47q5.85-21.19,12-42.3c2.92-9.95,5.86-20.59,5.84-31,0-20.5-26.86-15.06-38.07-9.94a.67.67,0,0,1-.89-.33.67.67,0,0,1,0-.44l3.59-13.93a.91.91,0,0,1,.59-.64C219.73,220.36,236,213.49,255.06,213.9Z"/></svg>