<svg id="Layer_1" data-name="Layer 1" xmlns="http://www.w3.org/2000/svg" viewBox="0 0 512 512"><path d="M441.2,41.83a.24.24,0,0,0-.08-.33.24.24,0,0,0-.23,0L45,200.46a.7.7,0,0,1-.9-.38l-5.85-14.5a.74.74,0,0,1,.41-.94l395-158.47q1.68-.69-.06-1.2l-27.06-7.89a.46.46,0,0,1-.35-.64l4.66-16a.57.57,0,0,1,.81-.44l46.8,14.48c10.67,3.29,14,7.05,8,17.49Q454.29,53.55,442,75.51a.71.71,0,0,1-1,.26l-13.67-7.88a.69.69,0,0,1-.26-.93Z"/><path d="M145.29,230.38c5.9,0,8.25,5.34,8.26,10.39q0,37.23,0,74.44a.53.53,0,0,0,.53.54h58.68a.55.55,0,0,0,.55-.54h0V182.3c0-7.61,2.25-11.67,10.15-11.67l66.14,0c7.28,0,9.06,5.25,9.06,11.81q0,66.41,0,132.79a.55.55,0,0,0,.55.54H357.9a.54.54,0,0,0,.54-.54h0V122.54c0-7.61,2.25-11.66,10.16-11.66l66.14,0c7.27,0,9.07,5.24,9.07,11.81V315a.77.77,0,0,0,.77.77h67a.48.48,0,0,1,.54.54V332a.71.71,0,0,1-.8.8H.43a.54.54,0,0,1-.54-.54V316.55a.71.71,0,0,1,.8-.8h67a.55.55,0,0,0,.55-.54h0V242.06c0-7.61,2.25-11.66,10.15-11.67Zm281.45-101.8a.64.64,0,0,0-.64-.64H376.16a.64.64,0,0,0-.64.64h0V315.11a.63.63,0,0,0,.64.64H426.1a.64.64,0,0,0,.64-.64h0ZM281.61,188.32a.62.62,0,0,0-.62-.62H231a.62.62,0,0,0-.62.62h0V315.13a.62.62,0,0,0,.62.62h50a.62.62,0,0,0,.62-.62ZM136.48,248.06a.6.6,0,0,0-.61-.6h-50a.6.6,0,0,0-.61.6h0v67.08a.61.61,0,0,0,.61.61h50a.61.61,0,0,0,.61-.61h0Z"/><path d="M367,442.51A149.45,149.45,0,0,1,347.31,461c-2.27,1.75-2.06,4.83-1.21,7.61,4.36,14.39-1.75,25.08-14.79,30.66q-16.06,6.87-27.55,11.33c-11,4.27-23.19-1.3-28.26-11.63-1.36-2.76-3.57-5.4-6.49-5.17a173.88,173.88,0,0,1-26.81,0c-4.42-.35-6.54,6.88-8.48,9.15-9,10.52-19.19,10.54-31.17,5.6q-9-3.71-18-7.37-9.59-3.9-13.23-7-11.42-9.9-6-27.05c.83-2.63-.5-4.85-2.6-6.71a187.79,187.79,0,0,1-18.39-18.71c-1.29-1.52-4.34-1.29-6.42-.69q-16.81,5-26.47-6.57-3.12-3.72-7.15-13.85c-6.3-15.84-18.43-33.17-1.84-47.83,3.67-3.23,9.91-3.58,9.24-9.94a97,97,0,0,1-.5-12.67.62.62,0,0,1,.61-.6l15.6-.11a.82.82,0,0,1,.82.78C129,364.53,130,376.52,115.5,384c-4.48,2.3-6.39,4.73-4.33,9.67l11.55,27.68c1.74,4.2,5.09,4.57,9.26,3.22,12.38-4,19.89.7,28.13,9.61,10.66,11.54,26.6,19.75,20.89,38.83-1.42,4.72-1.16,7.66,3.51,9.63q13.8,5.81,27.66,11.46c3.94,1.6,6.73.23,8.59-3.56,9.23-18.65,26-12.57,42.69-13.54,12.54-.72,21.48,2,27.31,14.25,1.8,3.76,5,4.38,8.89,2.87q11.72-4.65,23.37-9.48c6.5-2.71,10.05-3.59,7.72-11.26C324.87,454,340.79,446,351.73,434c7.94-8.72,15.57-13.19,27.56-9.51,5.08,1.56,7.81,1.21,9.93-3.8q5.63-13.23,11-26.56c1.64-4,.94-7.28-3-9.13a24,24,0,0,1-13-14c-2.17-6-1.13-13.86-.74-20.61a.48.48,0,0,1,.54-.5h15.73a.59.59,0,0,1,.66.68c-.15,3.58-.28,7.08-.41,10.5-.33,8.56,4.31,7.15,9.31,11.31,9.71,8.1,10.58,18.38,6.07,29.49q-4.27,10.49-8.57,21-3.39,8.28-6.46,11.75-10.05,11.39-27.26,6Q369.74,439.49,367,442.51Z"/><path d="M179.11,350.4c1.33,49.61,45,84.42,93.7,74.56,35-7.11,58.89-39.25,60.08-74.39a.61.61,0,0,1,.7-.67h15.56a.58.58,0,0,1,.65.65c-.9,61.42-58.08,105.71-118.09,90C190.63,429.86,163.29,393,162,350.82a.78.78,0,0,1,.88-.92h15.7A.46.46,0,0,1,179.11,350.4Z"/></svg>