<svg id="Layer_1" data-name="Layer 1" xmlns="http://www.w3.org/2000/svg" viewBox="0 0 512 512"><path d="M192.22,105.7c-5.57-2.69-3.87-7.1-.68-11Q227.81,51,263.79,7.05c5.54-6.78,8.7-10.85,15.87-1.89Q315.86,50.33,352.59,95c3.14,3.82,5.08,7.56.43,11a2,2,0,0,0-.63.78q-1.77,4-3.73,7.86c-2.75,5.44-5.37,4.39-10.42,4.36q-12.69-.07-25.38,0a.45.45,0,0,0-.51.52v29.48a.52.52,0,0,0,.52.53.52.52,0,0,0,.47-.3c3.17-6.31,7.11-8.54,14.23-6.65A232.16,232.16,0,0,1,378,162.49c2.83,1.52,4.63,3,5.42,4.49,2,3.76-.34,6.56-.62,10.06a120.93,120.93,0,0,1-8.58,36.27.94.94,0,0,0,.13,1l16.19,21.41a.81.81,0,0,0,.89.29q22.28-6.75,39.61-7.92c3.22-.22,5.74,2.6,7.33,5.52q12.21,22.32,22.22,45.69,0,.07,2.35,4.24c3,5.32-1,8.65-5.45,11.29a223.38,223.38,0,0,1-37.79,17.74,1,1,0,0,0-.62.84,87.77,87.77,0,0,1-4.21,23.74,1.08,1.08,0,0,0,.49,1.26q14.76,8.32,29.74,16.48c3.5,1.9,4.87,13.86,6.13,17.87a2,2,0,0,0,.51.82c4,3.67,2.37,7.7.4,12.55A223.72,223.72,0,0,1,429,428.48c-2.62,3.8-5.4,4.34-9.84,2.72q-17.58-6.4-35.05-13.14a.84.84,0,0,0-.85.13,173.71,173.71,0,0,0-17.61,15.47,1.16,1.16,0,0,0-.31,1.06q3.76,17.56,7.64,34.88c1.15,5.1-5.38,12.28-8.39,16.13a1.55,1.55,0,0,0-.3.91c0,3.17-1,5.41-3.18,6.7Q334.85,509,307.14,512c-3,.32-5.63-2.17-7-4.94q-9.17-18.5-18.24-37a1,1,0,0,0-.83-.57l-17.46-1.93a1.38,1.38,0,0,0-1.44.84q-6.72,15.82-13.51,32.06c-2.54,6.08-18.5,7.72-24.24,8.19a1.7,1.7,0,0,0-.93.38,7.7,7.7,0,0,1-6.61,1.94c-11.37-2.27-58.24-15.57-59-26.9-.21-3.14,2.09-5.68,3.12-8.41q7.31-19.36,14.41-38.66a1.27,1.27,0,0,0-.4-1.55l-26.22-22a.91.91,0,0,0-.89-.2q-17.55,4.67-35,9.57c-6.89,1.94-13.27,2-15.51-5.84q-7-24.27-13.78-48.57-1.16-4.15-.38-6.57c1.69-5.27,6.33-4.45,10.1-6a132.93,132.93,0,0,0,34.23-20.6,1,1,0,0,0,.4-.84l-.39-32.87a1.13,1.13,0,0,0-.64-1q-19.55-10.5-39.18-21.19c-5.68-3.09-7.61-7.15-4.46-13,8.35-15.43,15.38-31.54,23.37-47.19,2.58-5.06,4-13,12.44-8.75q21.24,10.77,42.07,21.85a.85.85,0,0,0,1.06-.23l24.29-31.29a1,1,0,0,0,.19-1q-4.8-16.93-9.48-33.79c-1.69-6.14-.28-9.76,5.44-12.13a205.43,205.43,0,0,1,46.37-13.19.57.57,0,0,0,.52-.61l.37-21.19a.51.51,0,0,0-.51-.53h0l-26.62,0c-7,0-7.86-6.69-9.9-11.83A1.4,1.4,0,0,0,192.22,105.7Zm44.33-12.33A4.78,4.78,0,0,1,241.49,98v.06q.39,19.8.15,41.14-.9,76.8-1.8,153.09a.66.66,0,0,0,.75.77h60.53a.72.72,0,0,0,.72-.72h0q-1-93.07-1.59-186.64c0-4.07-.14-10.58,5.84-10.52q15.53.2,30.62.12a.44.44,0,0,0,.44-.44.45.45,0,0,0-.1-.27L272.79,15.65a.59.59,0,0,0-.81-.09l-.09.09L208.15,93.07c-.71.87-.5,1.28.62,1.25ZM201.27,196.05c1.15,3.9,1.67,8.07-.9,11.36q-15.13,19.34-30,38.88c-5.93,7.79-10.4,2.23-16-.71q-17.29-9-34.43-18a.64.64,0,0,0-.86.28h0L99.69,267.64a.73.73,0,0,0,.34,1.08q18,9.78,36,19.36c4.48,2.38,6.8,5.54,6.8,10.44q0,24.5.47,40.26c.28,8.89-35.16,27.14-42.93,30.38a.85.85,0,0,0-.49,1l10.48,37a.5.5,0,0,0,.68.38q18.62-5,37.18-10.1c6.2-1.71,7.13,1.56,11,4.87,10.06,8.57,20.58,16.79,30.13,25.92,1.76,1.69,3.57,4.88,2.78,7q-8.3,22.5-16.61,44.69a.69.69,0,0,0,.32.85A158.37,158.37,0,0,0,215,494.91a.84.84,0,0,0,1-.44q11-18.66,20.93-38.15c2.61-5.17,6.41-6.28,12.17-5.65q19.36,2.13,38.72,4.35a7.63,7.63,0,0,1,5.49,4l17.79,36.18a.88.88,0,0,0,1,.48,125.24,125.24,0,0,0,35.7-12.26,1,1,0,0,0,.51-1.07q-3.81-19.83-7.65-39.78c-1.3-6.82,2.38-7.62,6.27-11.65,6.79-7.06,30.38-31.38,37.41-28.8q17.21,6.31,34.3,12.92a1.1,1.1,0,0,0,1.44-.46,188.58,188.58,0,0,0,17.13-32.32.67.67,0,0,0-.19-.84,294.06,294.06,0,0,0-33.77-24.09c-2.89-1.78-7.05-2.17-8-6.84q-.46-2.42,1.38-7.17c4.41-11.34,7.59-21.93,7.28-34.29a8.68,8.68,0,0,1,5.94-8.82,232,232,0,0,0,35.3-15.79.9.9,0,0,0,.44-1.27q-8.4-19.83-18.7-38.75a.74.74,0,0,0-.8-.4c-11.92,1.32-20.27,3.59-33.44,7.1-4.33,1.16-8.43,1.43-11.11-2.2q-9.57-13-19.51-25.66A14.41,14.41,0,0,1,359.75,209a116,116,0,0,0,8.15-33.78,1.19,1.19,0,0,0-.65-1.18,220.18,220.18,0,0,0-40.82-15.92,1.31,1.31,0,0,0-1.47.47c-2.89,3.55-5.63,6.44-7.57,10.93a50.18,50.18,0,0,1-4.5,8.23,1.38,1.38,0,0,0-.23.76l.44,48.28a.89.89,0,0,0,.55.85q39.09,19,52.48,59c9.75,29.16,6.63,59.76-9.83,85.77C322.69,425.53,253.83,436,206,394.83,152.12,348.52,165.91,263,227.89,231a1.61,1.61,0,0,0,.88-1.42l.69-73c0-.42-.21-.6-.62-.54-12.09,1.61-24.83,5.64-35.27,9.71a.57.57,0,0,0-.37.74Q196.9,181.44,201.27,196.05Zm79.32,119q-19.08-.3-38.16-.1c-7.19.07-8.05-4.7-10.5-10.11a1.56,1.56,0,0,0-.68-.71A5.3,5.3,0,0,1,228,299q.3-25.17.66-50.17a.42.42,0,0,0-.42-.43.39.39,0,0,0-.23.07C187,273.94,173.84,333,204.77,371.8a32.6,32.6,0,0,0,7.73,7c61.22,40,146.36-10.16,139.38-83.53C350,275,331,254.71,314.18,245a.75.75,0,0,0-1,.26.86.86,0,0,0-.1.38q.27,27,.7,52.93a6,6,0,0,1-2.46,5.25,1.47,1.47,0,0,0-.56.82c-1,3.29-2.59,10.39-6.81,10.58Q298.94,315.4,280.59,315.09Z"/><rect x="120.36" y="146.19" width="11.79" height="42.1" rx="5.71" transform="translate(-3.19 2.45) rotate(-1.1)"/><rect x="84.51" y="145.18" width="11.77" height="56.85" rx="5.78" transform="translate(-73.21 66.16) rotate(-29.2)"/><path d="M91.44,205.06c5.63,1.65,3.31,13.07-6.79,10.24-6.33-1.76-32.69-8.44-35.82-12.9-2.18-3.11.29-8.46,4.34-8.81a10.42,10.42,0,0,1,3.77.69Q74.1,200,91.44,205.06Z"/></svg>