<svg id="Layer_1" data-name="Layer 1" xmlns="http://www.w3.org/2000/svg" viewBox="0 0 512 512"><path d="M79.25,74.07C129.72,21.77,200.39-5.48,273.06,2.74,419.77,19.32,515.53,164,471.08,306.12a133.29,133.29,0,0,1-5.82,14.77.67.67,0,0,1-1.08.35l-8.48-4.66a.84.84,0,0,1-.41-1.16l3.12-7.64a.81.81,0,0,0-.45-1.07.76.76,0,0,0-.26-.06q-28.6-1.5-57.33-2.82a1.82,1.82,0,0,0-1.93,1.32,1.22,1.22,0,0,1-1.07.85l-9.89,1.07a.72.72,0,0,1-.78-.64.85.85,0,0,1,0-.32l.53-1.5c.29-.78,0-1.18-.81-1.21l-58.86-2a.61.61,0,0,0-.7.58l-6.26,43.1a.85.85,0,0,1-.22.47,100.61,100.61,0,0,0-16.13,24.12c-.14.3-.29.3-.43,0a.88.88,0,0,1,0-.76,22.71,22.71,0,0,0,1.53-6.12q.12-1-.93-1.05l-49.73-1.3a1.18,1.18,0,0,0-1.21,1.16v94.29a.88.88,0,0,0,.89.88,1,1,0,0,0,.37-.08c19.78-9.29,31.51-33.44,38.5-53a.34.34,0,0,1,.51-.24l.37.12a.1.1,0,0,1,.08.13,59.52,59.52,0,0,0-.77,25.34,2,2,0,0,1-.19,1.28,124.11,124.11,0,0,1-14,21.63.6.6,0,0,0,.1.84.57.57,0,0,0,.6.07l14.83-6.6c.47-.21.78-.08.93.41l5.05,15.72a.57.57,0,0,1-.47.83C201.11,485.06,101.8,443.07,48.57,357-7,267.19,6.14,149.85,79.25,74.07Zm112.07,35,49.74,1.35a1,1,0,0,0,1.06-1V14.78a.82.82,0,0,0-.82-.81.85.85,0,0,0-.35.08c-29.73,14.67-43.67,64.43-50.17,94.28a.58.58,0,0,0,.44.68Zm114-.8c-5.19-25.28-22.28-84.48-50.77-93.88a.78.78,0,0,0-1,.5.74.74,0,0,0-.05.25V109.3a1.08,1.08,0,0,0,1.07,1.09h0L304.72,109a.66.66,0,0,0,.64-.67A.43.43,0,0,0,305.34,108.22Zm-174.8-2.73,47.16,3a1.66,1.66,0,0,0,1.91-1.44c6.79-31.5,17.76-63.23,37.22-88.54.22-.28.16-.37-.17-.25-39.58,14.05-69.36,48.56-86.58,86.5C129.86,105.2,130,105.46,130.54,105.49Zm235.3-.77C349,67.29,319.1,32.28,279.51,18.23a.3.3,0,0,0-.36.19.28.28,0,0,0,.05.25C298.9,43.3,310.14,76.39,316.31,107a1.86,1.86,0,0,0,1.94,1.48l47.19-3C365.9,105.37,366,105.14,365.84,104.72ZM73.47,99.57l43.33,4.58a1,1,0,0,0,1.07-.6c14-29.61,35-61.52,63.31-79.4a.46.46,0,0,0-.39-.81Q115.63,44.84,73,98.3a.79.79,0,0,0,.12,1.11A.77.77,0,0,0,73.47,99.57ZM316.39,25.08A189.29,189.29,0,0,1,377.2,102.7a2.19,2.19,0,0,0,2.24,1.31l42.4-4.45a1,1,0,0,0,.86-1.06,1,1,0,0,0-.21-.5Q380.1,44.55,315.09,23.3s-.08,0-.1,0l-.12.36a.42.42,0,0,0,.22.52A12.71,12.71,0,0,1,316.39,25.08ZM112.3,115,65.14,110a.9.9,0,0,0-.92.43,223.29,223.29,0,0,0-26.64,53.09.67.67,0,0,0,.42.85.65.65,0,0,0,.19,0L96,167a1.43,1.43,0,0,0,1.45-1.13,306.73,306.73,0,0,1,15.24-50.31.42.42,0,0,0-.25-.54Zm318.37-5L383.75,115a.56.56,0,0,0-.5.62.83.83,0,0,0,0,.15,271.13,271.13,0,0,1,15.16,50.27,1.23,1.23,0,0,0,1.26,1l57.8-2.88c.68,0,.91-.38.69-1a217.33,217.33,0,0,0-26.64-52.77A.86.86,0,0,0,430.67,110Zm-254.8,9.87-50.24-3.52a1.29,1.29,0,0,0-1.3.79,265.43,265.43,0,0,0-15.16,49.56.76.76,0,0,0,.61.91l.13,0,58.44,1.73a1.2,1.2,0,0,0,1.22-1.06q2.4-23.94,7-47.53a.77.77,0,0,0-.61-.89Zm194.71-3.54-50.47,3.54a.7.7,0,0,0-.66.74s0,.07,0,.1a482.13,482.13,0,0,1,7,48.29.42.42,0,0,0,.43.38l59.55-2c.51,0,.71-.27.61-.78A270.49,270.49,0,0,0,371.68,117,1,1,0,0,0,370.58,116.32ZM180.69,168.05a1.24,1.24,0,0,0,1,1.41h.18l59,.55a1.25,1.25,0,0,0,1.26-1.23h0V123a1.23,1.23,0,0,0-1.21-1.24l-52-1.37a1.23,1.23,0,0,0-1.26,1Zm133,1.44c1,0,1.5-.53,1.41-1.57q-2.22-23.59-6.75-46.83a.74.74,0,0,0-.83-.67l-53.26,1.39a.7.7,0,0,0-.69.69v46.4a1.13,1.13,0,0,0,1.14,1.13ZM93.94,178.28l-58.86-2.89a1.32,1.32,0,0,0-1.32,1,204.28,204.28,0,0,0-8.16,52.34,1,1,0,0,0,1.1,1.13H89.55a.83.83,0,0,0,.94-.94,297,297,0,0,1,4.38-49.45,1,1,0,0,0-.8-1.14Zm376.23,51a199.47,199.47,0,0,0-8.09-52.75,1.43,1.43,0,0,0-1.58-1.14l-59,2.86a.66.66,0,0,0-.63.68s0,.06,0,.09a284.12,284.12,0,0,1,4.66,50.16.66.66,0,0,0,.66.66h63.44a.54.54,0,0,0,.54-.54Zm-303-48.5-60-2a.82.82,0,0,0-.93.77A383,383,0,0,0,101.83,229a.84.84,0,0,0,.82.84h61.68a1.61,1.61,0,0,0,1.81-1.74l1.91-46.42a.86.86,0,0,0-.84-.9ZM328,181l2,48.18a.64.64,0,0,0,.64.62h62.68a.72.72,0,0,0,.8-.82A315.07,315.07,0,0,0,389.8,180a1.36,1.36,0,0,0-1.36-1.12l-60,1.69a.46.46,0,0,0-.45.48Zm-85.88,1.29a.85.85,0,0,0-.84-.85l-60.86-.54a.85.85,0,0,0-.87.81l-2,47.19a.86.86,0,0,0,.81.9h62.95a.87.87,0,0,0,.86-.86h0Zm74.42-.42a1.07,1.07,0,0,0-1.07-1l-60.88.57a1.08,1.08,0,0,0-1.06,1.07v46.24a1.07,1.07,0,0,0,1.07,1.07h62.94a1.07,1.07,0,0,0,1.07-1.07v-.05ZM94.93,292.13a297.83,297.83,0,0,1-4.44-50.23.67.67,0,0,0-.67-.67H26.34a.74.74,0,0,0-.73.74v0a211,211,0,0,0,8,52.55,1.09,1.09,0,0,0,1.21.88l59.62-2.66a.53.53,0,0,0,.51-.55S94.93,292.16,94.93,292.13ZM168,289l-2-47a.86.86,0,0,0-.86-.81H102.75a.83.83,0,0,0-.82.83h0a346.2,346.2,0,0,0,4.37,49.4.81.81,0,0,0,.93.77l59.65-2A1.21,1.21,0,0,0,168,289Zm11.51.39a.82.82,0,0,0,.83.78l60.93-.57a.82.82,0,0,0,.81-.82V242.06a.83.83,0,0,0-.82-.83h-63a.83.83,0,0,0-.83.83v0Zm74-.86a1.06,1.06,0,0,0,1.06,1.07l60.85.56a1.07,1.07,0,0,0,1.07-1l2.1-46.81a1.07,1.07,0,0,0-1-1.11h-63a1.07,1.07,0,0,0-1.07,1.07Zm74.87,2,60,1.68a1.32,1.32,0,0,0,1.34-1.1,323.28,323.28,0,0,0,4.45-49,.87.87,0,0,0-.87-.87h-62.7a.67.67,0,0,0-.66.63l-2,48.21a.44.44,0,0,0,.42.45Zm73.36,2.29,59.38,2.67a1.05,1.05,0,0,0,1.07-.77,209.05,209.05,0,0,0,8-52.6.85.85,0,0,0-.83-.88H406.84a1.3,1.3,0,0,0-1.3,1.28A317.23,317.23,0,0,1,401.12,292a.68.68,0,0,0,.56.78ZM187.63,349.86a.85.85,0,0,0,.87.73l52.78-1.26a.85.85,0,0,0,.84-.85V301.89a.85.85,0,0,0-.86-.86h0l-59.8.51a.86.86,0,0,0-.85.86.53.53,0,0,0,0,.13Zm66.23-.63,53.61,1.39a.79.79,0,0,0,.87-.7q4.49-23.58,6.83-47.48c.05-.54-.2-.81-.74-.82L254.67,301a1,1,0,0,0-1.14,1.14v46.77A.33.33,0,0,0,253.86,349.23Zm-128.22,5.48,50.09-3.65a.86.86,0,0,0,.8-.91s0-.07,0-.1q-4.65-23.55-6.93-47.46a.9.9,0,0,0-1-.92l-58.79,1.8a.61.61,0,0,0-.59.62.28.28,0,0,0,0,.09,261,261,0,0,0,15.11,49.69A1.23,1.23,0,0,0,125.64,354.71Zm-13.08.42a302.62,302.62,0,0,1-15.12-49.95A1.52,1.52,0,0,0,95.9,304l-57.43,2.85A.85.85,0,0,0,37.7,308,214.15,214.15,0,0,0,64,360a1.72,1.72,0,0,0,1.74.8l46.48-5.05a.45.45,0,0,0,.41-.49A.28.28,0,0,0,112.56,355.13Zm78.53,7.9c5.15,26.6,21.49,82.42,49.59,93.48.95.37,1.43.05,1.43-1l0-94.32a.55.55,0,0,0-.54-.56h0L191.91,362C191.23,362,191,362.36,191.09,363Zm-61.15,3.22c17,37.41,47,72.34,86.52,86.59a.32.32,0,0,0,.42-.19.33.33,0,0,0,0-.32c-19.68-25-30.67-57.26-37.05-87.92a2.25,2.25,0,0,0-2.34-1.78l-47.16,3a.41.41,0,0,0-.38.44A.33.33,0,0,0,129.94,366.25Zm-56.71,6.61q42.55,53.38,107.59,74.83a.29.29,0,0,0,.38-.18.28.28,0,0,0-.11-.34c-28.57-20.7-48.23-47.88-63.17-79.63a1.1,1.1,0,0,0-1.12-.63l-43,4.55C72.78,371.56,72.58,372,73.23,372.86Z"/><path d="M497.76,419.49a91.21,91.21,0,0,1-91.22,91.21h0a91.21,91.21,0,0,1-91.21-91.21h0a91.21,91.21,0,0,1,91.21-91.21h0a91.22,91.22,0,0,1,91.22,91.21Zm-147.09-4.16c.94,31.65,21.11,61.29,52.52,69.51a12.56,12.56,0,0,0,6.69-.08c25.71-7.28,44.94-28.91,50.56-54.63,3.11-14.23,1.72-34.72,1.72-51.3a1.62,1.62,0,0,0-1-1.49l-53.92-24.1a2.11,2.11,0,0,0-1.77,0l-54.12,24.15a1.11,1.11,0,0,0-.71,1.07Q350.22,400.09,350.67,415.33Z"/><path d="M383.15,461.12c-22.91-21.14-21.34-44.74-20.7-75.41a1.08,1.08,0,0,1,.7-1l42.65-18.9a2,2,0,0,1,1.66,0l42.31,18.74a1.64,1.64,0,0,1,1,1.51c0,13.07,1,29.16-1.18,40.35-4.24,21.64-19.45,39.94-40.7,46.8C402.34,475.28,387.8,465.4,383.15,461.12Zm-11.06-41.84c1.91,19.37,14.47,38.31,33.68,44.43a2.07,2.07,0,0,0,1.37,0A49.1,49.1,0,0,0,428,449.45a.84.84,0,0,0,0-1.14l-7.42-7.42a1.12,1.12,0,0,0-1.35-.19q-12.81,7.28-24.34.85c-23.6-13.2-12.4-48.74,13.81-46.25,17.57,1.67,28.13,21.08,19.16,36.63a2.19,2.19,0,0,0,.34,2.67l4.85,4.85a1.15,1.15,0,0,0,1.85-.33c7.37-15.38,6.08-29.8,5.85-46.73a1.2,1.2,0,0,0-.75-1.16l-32.76-14.54a1.82,1.82,0,0,0-1.48,0l-32.94,14.57a1.08,1.08,0,0,0-.68,1Q371.48,413.09,372.09,419.28Zm49.19.21a14.74,14.74,0,1,0-29.47,0h0a14.73,14.73,0,0,0,14.73,14.74h0a14.74,14.74,0,0,0,14.74-14.74Z"/></svg>